# xmcd CD database file
#
# Track frame offsets:
#	150
#	11605
#	24472
#	35910
#	50015
#	61380
#	72332
#	84635
#	97195
#	109552
#	121082
#	134305
#	145152
#	156455
#
# Disc length: 2267 seconds
#
# Revision: 0
# Processed by: cddbd v1.4PL0 Copyright (c) Steve Scherf et al.
# Submitted via: CDex 1.50beta10
#
DISCID=c708d90e
DTITLE=Jerry McCain and Tiny Kennedy and Clayton Love - Strange Kind of Feelin'
DYEAR=1993
DGENRE=Blues
TTITLE0=Strange Kind of Feeling [#]
TTITLE1=Have You Heard About the Farmer's Daughter? [#]
TTITLE2=Early in the Mornin', Baby
TTITLE3=Don't Lay This Job on Me
TTITLE4=Blues Disease
TTITLE5=Shufflin' With Love
TTITLE6=Susie
TTITLE7=East of the Sun
TTITLE8=Wine-O-Wine
TTITLE9=Stay Out of Automobiles
TTITLE10=Middle of the Night [#]
TTITLE11=Crazy 'Bout That Mess [#]
TTITLE12=Fall Guy [#]
TTITLE13=Love to Make Up
EXTD=YEAR: 1993
EXTT0=
EXTT1=
EXTT2=
EXTT3=
EXTT4=
EXTT5=
EXTT6=
EXTT7=
EXTT8=
EXTT9=
EXTT10=
EXTT11=
EXTT12=
EXTT13=
PLAYORDER=
